<svg id="Layer_2" data-name="Layer 2" xmlns="http://www.w3.org/2000/svg" width="24" height="24" viewBox="0 0 24 24">
  <g id="invisible_box" data-name="invisible box">
    <rect id="Rectangle_2911" data-name="Rectangle 2911" width="24" height="24" fill="none"/>
  </g>
  <g id="icons_Q2" data-name="icons Q2" transform="translate(1.045 0.995)">
    <path id="Path_249" data-name="Path 249" d="M23.045,3.545v4.45a1,1,0,0,1-1,1h-4.5a1,1,0,0,1-1-1.15,1.05,1.05,0,0,1,1.05-.85h2.15a9,9,0,0,0-15.65,5.1,1,1,0,0,1-1,.9h0a1,1,0,0,1-1-1.1,11,11,0,0,1,18.95-6.45V3.495a1,1,0,0,1,1.15-1,1.05,1.05,0,0,1,.85,1.05Z" transform="translate(-2.09 -1.989)"/>
    <path id="Path_250" data-name="Path 250" d="M4,33.45V29a1,1,0,0,1,1-1H9.5a1,1,0,0,1,1,1.15A1.05,1.05,0,0,1,9.45,30H7.3a9,9,0,0,0,15.65-5.1,1,1,0,0,1,1-.9h0a1,1,0,0,1,1,1.1A11,11,0,0,1,6,31.55V33.5a1,1,0,0,1-1.15,1A1.05,1.05,0,0,1,4,33.45Z" transform="translate(-3.045 -12.995)"/>
  </g>
</svg>
