<svg xmlns="http://www.w3.org/2000/svg" width="37" height="37" viewBox="0 0 37 37">
  <g id="Layer_2" data-name="Layer 2" transform="translate(0 0.349)">
    <g id="invisible_box" data-name="invisible box">
      <rect id="Rectangle_2925" data-name="Rectangle 2925" width="37" height="37" transform="translate(0 -0.349)" fill="none"/>
    </g>
    <g id="icons_Q2" data-name="icons Q2" transform="translate(1.527 1.527)">
      <path id="Path_253" data-name="Path 253" d="M18.8,5.054A13.744,13.744,0,1,1,5.054,18.8,13.744,13.744,0,0,1,18.8,5.054M18.8,2A16.722,16.722,0,1,0,30.7,6.9,16.8,16.8,0,0,0,18.8,2Z" transform="translate(-2 -2)"/>
      <path id="Path_254" data-name="Path 254" d="M24.01,21.862l4.276-4.2a1.6,1.6,0,0,0,.153-2.062,1.451,1.451,0,0,0-2.291-.153l-4.276,4.276L17.6,15.449a1.451,1.451,0,0,0-2.291.153,1.6,1.6,0,0,0,.153,2.062l4.276,4.2-4.276,4.2a1.6,1.6,0,0,0-.153,2.062,1.451,1.451,0,0,0,2.291.153L21.872,24l4.276,4.276a1.451,1.451,0,0,0,2.291-.153,1.6,1.6,0,0,0-.153-2.062Z" transform="translate(-5.074 -5.064)"/>
    </g>
  </g>
</svg>
