<svg xmlns="http://www.w3.org/2000/svg" width="23.052" height="35.231" viewBox="0 0 23.052 35.231">
  <path id="Path_31" data-name="Path 31" d="M21.854,8.55c.1-.1.167-.185.346-.127a.654.654,0,0,0,.777-.347.691.691,0,0,0-.169-.84.706.706,0,0,0-.858-.025.652.652,0,0,0-.212.823c.1.182.045.273-.064.4-.772.938-1.538,1.882-2.305,2.823l-1,1.23v-.357c0-1.315,0-2.629,0-3.944a2.014,2.014,0,0,0-.18-.9A.227.227,0,0,1,18.224,7c.259-.3.513-.61.754-.927a.3.3,0,0,1,.37-.122.654.654,0,0,0,.749-.349.69.69,0,0,0-1-.883.66.66,0,0,0-.236.842.287.287,0,0,1-.044.382c-.236.27-.456.554-.684.83-.041.05-.065.128-.153.122a2.436,2.436,0,0,0-4.14.088.511.511,0,0,1,.061-.646c.47-.541.917-1.1,1.361-1.665.152-.192.3-.336.563-.236a.291.291,0,0,0,.119,0A2.227,2.227,0,0,0,16.278.023,3.723,3.723,0,0,0,15.667,0,1.383,1.383,0,0,0,15,.117a2.207,2.207,0,0,0-1.3,1.839A2.179,2.179,0,0,0,14.838,4.21c.287.162.294.163.076.428-.4.485-.778.985-1.195,1.455a.851.851,0,0,0-.212.9,1.048,1.048,0,0,1,0,.647,2.044,2.044,0,0,0-.066.592q0,1.7,0,3.406c0,.373-.009.382-.388.382-1.206,0-2.413,0-3.619,0a7.64,7.64,0,0,0-2.036.292,9.286,9.286,0,0,0-4.489,2.77A8.994,8.994,0,0,0,.53,20.939a8.843,8.843,0,0,0,1.338,5.037.346.346,0,0,1-.019.46c-.217.26-.438.517-.644.786a.332.332,0,0,1-.336.132A.721.721,0,0,0,0,28.176a.709.709,0,0,0,.818.67.7.7,0,0,0,.651-.832.7.7,0,0,1,.219-.795,4.385,4.385,0,0,0,.357-.441c.122-.165.229-.2.371-.013a13.006,13.006,0,0,0,1.6,1.649.2.2,0,0,1,.026.327c-.157.193-.331.373-.472.578a.779.779,0,0,1-.76.41.688.688,0,0,0-.662.584.711.711,0,0,0,.389.824.686.686,0,0,0,.809-.088.705.705,0,0,0,.262-.8.472.472,0,0,1,.1-.518,8.586,8.586,0,0,0,.568-.694c.148-.21.292-.216.5-.081A9.849,9.849,0,0,0,7.4,30.108c.286.084.3.114.106.347-.663.809-1.33,1.615-1.98,2.434a.528.528,0,0,1-.53.246.694.694,0,0,0-.673.308.75.75,0,0,0,.038.941.789.789,0,0,0,.93.184.7.7,0,0,0,.382-.826.637.637,0,0,1,.176-.671Q6.9,31.8,7.926,30.523a.49.49,0,0,1,.519-.2,3.685,3.685,0,0,0,.711.089c.68-.008,1.361.026,2.062-.026a.713.713,0,0,0-.539.557.753.753,0,0,0,.384.806.726.726,0,0,0,.858-.1.777.777,0,0,0,.21-.823c-.051-.209-.012-.353.2-.424a.234.234,0,0,0,.167-.156,5.025,5.025,0,0,1,1.04-1.438c.136-.182.363-.15.557-.108.173.037.154.209.185.342a2.276,2.276,0,0,0,1.6,1.736c.319.1.323.1.119.35-.65.806-1.307,1.607-1.961,2.411a.484.484,0,0,1-.5.222.786.786,0,0,0-.8.593.7.7,0,0,0,.489.839c.055.019.121-.006.169.041h.12c.046-.059.132,0,.179-.06.431-.227.6-.575.4-.941a.284.284,0,0,1,.06-.38c.707-.862,1.418-1.722,2.112-2.6A1.441,1.441,0,0,1,17.1,30.7a2.107,2.107,0,0,0,1.572-2.135.618.618,0,0,1,.151-.43q.614-.733,1.209-1.481a.32.32,0,0,1,.386-.151.672.672,0,0,0,.786-.894.688.688,0,0,0-.9-.406.668.668,0,0,0-.371.91.311.311,0,0,1-.06.406c-.367.433-.72.878-1.08,1.317-.048.058-.081.137-.171.156-.037-.093-.074-.185-.11-.278a2.186,2.186,0,0,0-2.278-1.331,2.236,2.236,0,0,0-1.885,1.785.452.452,0,0,1-.077.241c-.219,0-.429.007-.637,0a.3.3,0,0,0-.278.133c-.24.3-.488.6-.736.9-.039.047-.057.137-.162.1v-.624q0-1.419,0-2.838c0-.224,0-.224-.23-.226-.182,0-.364,0-.586,0,.078-.1.107-.16.194-.15a1.518,1.518,0,0,0,.236.022.685.685,0,0,0-.026-1.37.654.654,0,0,0-.613.355.684.684,0,0,0,.008.685c.036.068.123.109.115.2a.522.522,0,0,1-.324.273A7.6,7.6,0,0,1,9.1,25.7,4.537,4.537,0,0,1,6.013,22.94a.062.062,0,0,1,.011-.075c.739,0,1.476,0,2.214,0a.381.381,0,0,0,.352-.161c.228-.3.481-.585.712-.884a.27.27,0,0,1,.344-.119.657.657,0,0,0,.764-.379.691.691,0,0,0-.2-.833.7.7,0,0,0-.859.005.683.683,0,0,0-.189.835c.029.062.069.119.109.186-.266.326-.536.645-.79.977a.4.4,0,0,1-.385.164c-.4-.016-.8-.019-1.2-.025-.279,0-.558,0-.837-.008-.066,0-.155.026-.183-.058a3.277,3.277,0,0,1-.1-.4c-.023-.117.079-.176.139-.25q1.772-2.179,3.546-4.356c.1-.127.193-.192.368-.126a.67.67,0,0,0,.825-.6.472.472,0,0,1,.023-.247h2.5c.07,0,.14,0,.209,0,.087,0,.127.035.123.123,0,.07,0,.14,0,.209q0,2.345,0,4.691a2.958,2.958,0,0,0,.064.682,2.446,2.446,0,0,0,2.687,1.865,2.489,2.489,0,0,0,2.1-2.476c-.03-2.858-.008-5.716-.012-8.574a.664.664,0,0,1,.154-.461c.931-1.129,1.855-2.266,2.782-3.4m-9.676,21.1a.513.513,0,0,1-.177.02l.177-.02M9.307,17.42q-1.7,2.066-3.383,4.141a.622.622,0,0,1-.186.189A4.588,4.588,0,0,1,9.253,16.7a1.15,1.15,0,0,0,.094.335.275.275,0,0,1-.039.382" transform="translate(-0.001 0)" fill="#fff"/>
</svg>
