<?xml version="1.0" encoding="utf-8"?>
<!-- Generator: Adobe Illustrator 26.0.3, SVG Export Plug-In . SVG Version: 6.00 Build 0)  -->
<svg version="1.1" id="Layer_1" xmlns="http://www.w3.org/2000/svg" xmlns:xlink="http://www.w3.org/1999/xlink" x="0px" y="0px"
	 viewBox="0 0 80 80" style="enable-background:new 0 0 80 80;" xml:space="preserve">
<style type="text/css">
	.st0{fill:#CECECE;}
</style>
<path id="Icon_awesome-eye-slash" class="st0" d="M40,51.58c-6.04-0.01-11.05-4.68-11.49-10.7l-8.44-6.52
	c-1.13,1.39-2.12,2.89-2.95,4.47c-0.37,0.74-0.37,1.61,0,2.35C21.45,49.85,30.3,55.37,40,55.44c2.12-0.01,4.22-0.3,6.26-0.84
	l-4.17-3.23C41.4,51.51,40.7,51.58,40,51.58L40,51.58z M65.24,56.25l-8.89-6.87c2.7-2.28,4.92-5.07,6.54-8.21
	c0.37-0.74,0.37-1.61,0-2.35c-4.34-8.68-13.18-14.19-22.88-14.27c-4.14,0-8.22,1.05-11.85,3.03l-10.23-7.91
	c-0.56-0.44-1.37-0.34-1.81,0.22l-1.58,2.03c-0.44,0.56-0.34,1.37,0.22,1.81l47.33,36.58c0.56,0.44,1.37,0.34,1.81-0.22l1.58-2.03
	C65.9,57.51,65.81,56.7,65.24,56.25L65.24,56.25z M50.46,44.83l-3.16-2.44c1.37-3.98-0.75-8.32-4.73-9.69
	c-1.49-0.51-3.1-0.55-4.61-0.11c0.49,0.66,0.75,1.45,0.75,2.27c-0.01,0.27-0.05,0.54-0.12,0.8l-5.92-4.58
	c2.06-1.72,4.65-2.66,7.33-2.66c6.39,0,11.58,5.18,11.58,11.57c0,0,0,0.01,0,0.01C51.57,41.68,51.19,43.33,50.46,44.83L50.46,44.83z
	"/>
</svg>
