<svg id="Layer_2" data-name="Layer 2" xmlns="http://www.w3.org/2000/svg" width="17" height="17" viewBox="0 0 17 17">
  <g id="invisible_box" data-name="invisible box">
    <rect id="Rectangle_2907" data-name="Rectangle 2907" width="17" height="17" fill="none"/>
  </g>
  <g id="icons_Q2" data-name="icons Q2" transform="translate(0.708 0.708)">
    <path id="Path_246" data-name="Path 246" d="M9.792,3.417A6.375,6.375,0,1,1,3.417,9.792,6.375,6.375,0,0,1,9.792,3.417M9.792,2a7.756,7.756,0,1,0,5.52,2.272A7.792,7.792,0,0,0,9.792,2Z" transform="translate(-2 -2)" fill="#fff"/>
    <path id="Path_247" data-name="Path 247" d="M19.18,18.161l1.983-1.948a.744.744,0,0,0,.071-.956.673.673,0,0,0-1.062-.071L18.188,17.17,16.2,15.186a.673.673,0,0,0-1.062.071.744.744,0,0,0,.071.956L17.2,18.161l-1.983,1.948a.744.744,0,0,0-.071.956.673.673,0,0,0,1.063.071l1.983-1.983,1.983,1.983a.673.673,0,0,0,1.063-.071.744.744,0,0,0-.071-.956Z" transform="translate(-10.397 -10.369)" fill="#fff"/>
  </g>
</svg>
