<?xml version="1.0" encoding="utf-8"?>
<!-- Generator: Adobe Illustrator 26.2.1, SVG Export Plug-In . SVG Version: 6.00 Build 0)  -->
<svg version="1.1" id="Layer_1" xmlns="http://www.w3.org/2000/svg" xmlns:xlink="http://www.w3.org/1999/xlink" x="0px" y="0px"
	 viewBox="0 0 500 500" style="enable-background:new 0 0 500 500;" xml:space="preserve">
<style type="text/css">
	.st0{fill:#CBCBCB;}
	.st1{fill:#FFFFFF;}
</style>
<g id="icons8-ok-48" transform="translate(-4 -4)">
	<path id="Path_270" class="st0" d="M490.8,254c0,130.8-106,236.8-236.8,236.8S17.2,384.8,17.2,254c0-130.7,106-236.7,236.7-236.8
		C384.7,17.2,490.7,123.2,490.8,254z"/>
	<path id="Path_273" class="st1" d="M221.9,357.3l-94.8-94.9c-4.6-4.6-4.6-12.1,0-16.7l16.7-16.7c4.6-4.6,12.1-4.6,16.7,0l69.6,69.6
		l129-128.8c4.6-4.6,12.1-4.6,16.7,0l16.7,16.7c4.6,4.6,4.6,12.1,0,16.7L238.8,356.9C234.3,361.7,226.8,361.8,221.9,357.3
		C222,357.3,222,357.3,221.9,357.3z"/>
</g>
</svg>
