<?xml version="1.0" encoding="utf-8"?>
<!-- Generator: Adobe Illustrator 26.0.3, SVG Export Plug-In . SVG Version: 6.00 Build 0)  -->
<svg version="1.1" id="Layer_1" xmlns="http://www.w3.org/2000/svg" xmlns:xlink="http://www.w3.org/1999/xlink" x="0px" y="0px"
	 viewBox="0 0 80 80" style="enable-background:new 0 0 80 80;" xml:space="preserve">
<style type="text/css">
	.st0{fill:#CECECE;}
</style>
<path class="st0" d="M47.77,39.9c0,0.26-0.05,0.5-0.08,0.75c0,0.04-0.01,0.08-0.01,0.11c-0.23,2.02-1.24,3.79-2.74,5.02
	c-0.98,0.81-2.15,1.38-3.46,1.61c-0.22,0.04-0.44,0.05-0.67,0.07c-0.23,0.02-0.45,0.07-0.69,0.07c-0.52,0-1.03-0.05-1.53-0.15
	c-0.06-0.01-0.12-0.04-0.18-0.05c-0.42-0.1-0.83-0.22-1.22-0.38c-0.12-0.05-0.23-0.12-0.34-0.18c-0.32-0.15-0.64-0.31-0.93-0.5
	c-0.13-0.09-0.25-0.19-0.37-0.29c-0.25-0.19-0.51-0.39-0.74-0.61c-0.13-0.13-0.24-0.27-0.36-0.41c-0.19-0.22-0.39-0.43-0.55-0.67
	c-0.12-0.17-0.22-0.36-0.33-0.54c-0.13-0.23-0.26-0.45-0.37-0.69c-0.1-0.22-0.18-0.45-0.26-0.68c-0.08-0.22-0.15-0.44-0.21-0.67
	c-0.07-0.27-0.1-0.54-0.14-0.82c-0.04-0.33-0.1-0.65-0.1-0.99c0-0.74,0.14-1.43,0.34-2.1c0.04,0.03,0.08,0.07,0.13,0.1
	c0.14,0.09,0.3,0.17,0.45,0.24c0.06,0.03,0.11,0.06,0.17,0.09c0.19,0.08,0.39,0.14,0.59,0.18c0.03,0.01,0.06,0.02,0.09,0.03
	c0.24,0.05,0.49,0.07,0.74,0.07c0.11,0,0.22-0.02,0.33-0.03c0.11-0.01,0.22-0.01,0.32-0.03c0.63-0.11,1.2-0.39,1.68-0.78
	c0.73-0.59,1.22-1.45,1.33-2.43c0-0.02,0-0.04,0.01-0.06c0.01-0.12,0.04-0.24,0.04-0.36c0-0.82-0.28-1.58-0.73-2.19
	c0.1-0.03,0.2-0.07,0.3-0.09c0.14-0.03,0.27-0.08,0.41-0.11c0.47-0.09,0.95-0.14,1.44-0.15c0.01,0,0.01,0,0.02,0
	C44.36,32.27,47.77,35.69,47.77,39.9z M56.35,49.38c-1.59,1.45-4.54,3-4.54,3c-1.56,0.83-3.43,1.65-5.55,2.22
	c-0.46,0.12-0.86,0.2-1.23,0.25c-1.66,0.35-3.33,0.58-5.03,0.59c-9.7-0.07-18.54-5.59-22.88-14.27c-0.37-0.74-0.37-1.61,0-2.35
	c0.83-1.59,1.82-3.08,2.95-4.47c0,0,1.48-1.75,3.7-3.65c0,0,2.06-1.68,4.39-3.11c3.64-1.99,7.71-3.03,11.85-3.03
	c9.7,0.07,18.54,5.59,22.88,14.27c0.37,0.74,0.37,1.61,0,2.35C61.27,44.32,59.05,47.11,56.35,49.38z M51.58,40
	c0-0.8-0.08-1.58-0.24-2.34c-0.09-0.44-0.25-0.84-0.39-1.26c-0.1-0.3-0.16-0.62-0.28-0.91c-1.68-3.97-5.53-6.77-10.05-7.01
	c-0.21-0.01-0.41-0.06-0.62-0.06c0,0,0,0,0,0c0,0,0,0,0,0c-0.72,0-1.44,0.08-2.14,0.22c-0.02,0-0.05,0-0.07,0.01
	c-0.21,0.04-0.41,0.11-0.62,0.16c-0.09,0.02-0.18,0.06-0.28,0.09c-0.34,0.1-0.69,0.19-1.02,0.32c-0.04,0.02-0.09,0.02-0.13,0.04
	c-0.26,0.1-0.51,0.23-0.76,0.35c-0.09,0.04-0.17,0.1-0.26,0.14c-0.22,0.11-0.43,0.22-0.64,0.35c-0.06,0.04-0.13,0.07-0.2,0.11
	c-0.28,0.18-0.55,0.37-0.81,0.57c-0.08,0.06-0.16,0.13-0.24,0.2c-0.06,0.05-0.12,0.08-0.18,0.12l0.01,0.01
	c-0.01,0.01-0.01,0.01-0.02,0.02c-1.33,1.1-2.43,2.47-3.16,4.06c-0.68,1.47-1.08,3.1-1.08,4.83c0,0.51,0.09,1.01,0.15,1.5
	c0.06,0.42,0.11,0.84,0.21,1.24c0.03,0.11,0.07,0.21,0.1,0.31c0,0.01,0.01,0.02,0.01,0.03c0.07,0.22,0.13,0.45,0.21,0.67
	c0.12,0.35,0.24,0.7,0.39,1.04c0.04,0.09,0.1,0.17,0.14,0.26c0.02,0.04,0.04,0.08,0.06,0.11c0.12,0.23,0.24,0.45,0.36,0.67
	c0.16,0.28,0.31,0.56,0.5,0.82c0.05,0.07,0.11,0.13,0.17,0.2c0.05,0.07,0.1,0.12,0.15,0.19c0.17,0.21,0.34,0.43,0.52,0.63
	c0.18,0.21,0.35,0.42,0.55,0.62c0.05,0.05,0.11,0.09,0.17,0.14c0.09,0.09,0.2,0.16,0.29,0.24c0.22,0.18,0.43,0.37,0.66,0.54
	c0.19,0.14,0.37,0.31,0.57,0.44c0.05,0.03,0.1,0.05,0.15,0.08c0.15,0.1,0.32,0.17,0.48,0.26c0.26,0.14,0.51,0.3,0.78,0.43
	c0.18,0.08,0.34,0.19,0.52,0.27c0.03,0.01,0.07,0.02,0.11,0.03c0.26,0.11,0.55,0.17,0.82,0.26c0.31,0.09,0.6,0.21,0.92,0.29
	c0.09,0.02,0.18,0.06,0.27,0.08c0.02,0,0.04,0,0.07,0.01c0.73,0.15,1.48,0.23,2.25,0.23l0,0.01c0.7-0.01,1.4-0.08,2.09-0.22
	c0,0,0.01-0.01,0.01-0.01c1.96-0.36,3.72-1.22,5.2-2.44c1.35-1.11,3.17-4.09,3.17-4.09c0.72-1.5,1.1-3.14,1.11-4.8
	C51.57,40.02,51.58,40.01,51.58,40z"/>
</svg>
